<?xml version="1.0" encoding="utf-8"?>
<!-- Generator: Adobe Illustrator 27.6.1, SVG Export Plug-In . SVG Version: 6.00 Build 0)  -->
<svg version="1.1" id="Layer_1" xmlns="http://www.w3.org/2000/svg" xmlns:xlink="http://www.w3.org/1999/xlink" x="0px" y="0px"
	 viewBox="0 0 300 36.3" style="enable-background:new 0 0 300 36.3;" xml:space="preserve">
<style type="text/css">
	.st0{fill:#222222;}
</style>
<g>
	<path class="st0" d="M204.1,32.6c-8.1-0.4-14.3-7.3-13.9-15.4c0.4-8.1,7.3-14.4,15.4-14c3.2,0.2,6.2,1.4,8.6,3.3
		c-2.4-2.1-5.6-3.5-9.1-3.6c-8.3-0.4-15.4,6-15.8,14.4c-0.4,8.3,6,15.4,14.3,15.8c5,0.2,9.6-2,12.5-5.7
		C213.2,30.7,208.9,32.8,204.1,32.6L204.1,32.6z M86.6,22.7v-9.1h0.9v9.1C87.5,22.7,86.6,22.7,86.6,22.7z M97.3,22.7l-4.2-9.1h1
		l3.7,8.2l3.7-8.2h1l-4.2,9.1C98.2,22.7,97.3,22.7,97.3,22.7z M108.1,22.7v-9.1h7.3v0.7h-6.5v5.1h5.9v0.7h-5.9V22h6.5v0.7
		L108.1,22.7L108.1,22.7z M141.8,15.8c-0.2-0.6-0.6-1.1-1.1-1.3c-0.5-0.3-1.2-0.4-2-0.4c-1,0-1.8,0.2-2.3,0.5s-0.8,0.7-0.8,1.3
		c0,0.5,0.2,0.9,0.6,1.1c0.4,0.3,1,0.5,1.9,0.6l1.6,0.2c1.1,0.2,1.9,0.4,2.3,0.8c0.5,0.4,0.7,1,0.7,1.7c0,0.8-0.3,1.5-1,1.9
		s-1.6,0.7-2.9,0.7c-2.7,0-4.1-0.9-4.4-2.7h0.9c0.1,0.7,0.5,1.2,1.1,1.5s1.4,0.5,2.4,0.5s1.8-0.2,2.3-0.5s0.8-0.8,0.8-1.4
		c0-0.5-0.2-0.9-0.6-1.2c-0.4-0.3-1-0.5-1.9-0.6l-1.5-0.2c-1.1-0.2-2-0.4-2.5-0.8s-0.8-1-0.8-1.7c0-0.8,0.3-1.4,1-1.8
		c0.7-0.4,1.7-0.7,2.9-0.7c1.1,0,2,0.2,2.6,0.5s1.1,0.9,1.3,1.8L141.8,15.8L141.8,15.8z M149,22.7v-9.1h0.8v9.1
		C149.8,22.7,149,22.7,149,22.7z M156.5,22.7v-9.1h3.7c1.6,0,2.8,0.4,3.7,1.2s1.3,1.9,1.3,3.4s-0.5,2.6-1.4,3.4
		c-0.9,0.8-2.2,1.2-3.9,1.2h-3.4V22.7z M160,22c1.5,0,2.5-0.3,3.3-1c0.7-0.6,1.1-1.6,1.1-2.9c0-1.3-0.3-2.2-1.1-2.9
		c-0.7-0.6-1.7-1-3.1-1h-2.9v7.7L160,22L160,22z M171.4,22.7v-9.1h7.3v0.7h-6.5v5.1h5.9v0.7h-5.9V22h6.5v0.7L171.4,22.7L171.4,22.7z
		 M217.3,22.7v-9.1h7.3v0.7h-6.5v5.1h5.9v0.7h-5.9V22h6.5v0.7L217.3,22.7L217.3,22.7z M237.3,15.8c-0.2-0.6-0.6-1.1-1.1-1.3
		c-0.5-0.3-1.2-0.4-2-0.4c-1,0-1.8,0.2-2.3,0.5s-0.8,0.7-0.8,1.3c0,0.5,0.2,0.9,0.6,1.1c0.4,0.3,1,0.5,1.9,0.6l1.6,0.2
		c1.1,0.2,1.9,0.4,2.3,0.8c0.5,0.4,0.7,1,0.7,1.7c0,0.8-0.3,1.5-1,1.9c-0.7,0.5-1.6,0.7-2.9,0.7c-2.7,0-4.1-0.9-4.4-2.7h0.9
		c0.1,0.7,0.5,1.2,1.1,1.5s1.4,0.5,2.4,0.5s1.8-0.2,2.3-0.5s0.8-0.8,0.8-1.4c0-0.5-0.2-0.9-0.6-1.2c-0.4-0.3-1-0.5-1.9-0.6l-1.5-0.2
		c-1.1-0.2-2-0.4-2.5-0.8s-0.8-1-0.8-1.7c0-0.8,0.3-1.4,1-1.8c0.7-0.4,1.7-0.7,2.9-0.7c1.1,0,2,0.2,2.6,0.5s1.1,0.9,1.3,1.8
		L237.3,15.8L237.3,15.8z M253.1,19.7c-0.2,1-0.6,1.8-1.4,2.4c-0.8,0.6-1.8,0.8-3,0.8c-1,0-1.8-0.2-2.6-0.6
		c-0.7-0.4-1.3-0.9-1.7-1.7c-0.4-0.7-0.6-1.6-0.6-2.6c0-0.9,0.2-1.8,0.6-2.5c0.4-0.7,0.9-1.3,1.7-1.7c0.7-0.4,1.6-0.6,2.6-0.6
		c1.1,0,2.1,0.2,2.8,0.7s1.2,1.2,1.5,2.2l-0.8,0.1c-0.3-0.8-0.7-1.4-1.2-1.8c-0.6-0.4-1.3-0.6-2.2-0.6c-0.8,0-1.5,0.2-2.1,0.5
		s-1.1,0.8-1.4,1.4c-0.3,0.6-0.5,1.4-0.5,2.2c0,1.3,0.3,2.3,1.1,3c0.7,0.7,1.7,1.1,2.9,1.1c1,0,1.8-0.2,2.4-0.6c0.6-0.4,1-1,1.1-1.8
		L253.1,19.7L253.1,19.7z M259.2,22.7v-9.1h7.3v0.7H260v5.1h5.9v0.7H260V22h6.5v0.7L259.2,22.7L259.2,22.7z M280,22.7l-6.6-7.9v7.9
		h-0.9v-9.1h0.8l6.6,7.9v-7.9h0.8v9.1C280.8,22.7,280,22.7,280,22.7z M290.3,22.7v-8.4h-3.9v-0.7h8.7v0.7h-3.9v8.4L290.3,22.7
		L290.3,22.7z M127,18.6c0.6-0.2,1.1-0.4,1.5-0.8c0.3-0.4,0.5-0.9,0.5-1.6c0-0.9-0.3-1.5-0.9-1.9c-0.6-0.4-1.4-0.7-2.5-0.7h-4.2v9.1
		h0.8v-8.4h3.3c0.9,0,1.5,0.2,1.9,0.5s0.6,0.8,0.6,1.4c0,1.2-0.9,1.9-2.6,1.9h-2.5v0.7h2.4c0.3,0,0.5,0,0.7,0l2.3,4h1L127,18.6
		L127,18.6z"/>
	<path class="st0" d="M78.5,18.6c0.6-0.2,1.1-0.4,1.5-0.8s0.5-0.9,0.5-1.6c0-0.9-0.3-1.5-0.9-1.9s-1.4-0.7-2.5-0.7h-4.2v9.1h0.8
		v-8.4H77c0.9,0,1.5,0.2,1.9,0.5s0.6,0.8,0.6,1.4c0,1.2-0.9,1.9-2.6,1.9h-2.4v0.7h2.4c0.3,0,0.5,0,0.7,0l2.3,4h1L78.5,18.6
		L78.5,18.6z"/>
	<path class="st0" d="M209.1,18.5c0.6-0.2,1.1-0.4,1.5-0.8c0.3-0.4,0.5-0.9,0.5-1.6c0-0.9-0.3-1.5-0.9-1.9c-0.6-0.4-1.4-0.7-2.5-0.7
		h-4.2v9.1h0.8v-8.4h3.3c0.9,0,1.5,0.2,1.9,0.5s0.6,0.8,0.6,1.4c0,1.2-0.9,1.9-2.6,1.9H205v0.7h2.4c0.3,0,0.5,0,0.7,0l2.3,4h1
		L209.1,18.5L209.1,18.5z"/>
	<path class="st0" d="M12.4,16.3c1.6,0,2.8-0.5,3.7-1.4c0.9-0.9,1.4-2.2,1.4-3.8S17,8.3,16,7.4s-2.4-1.3-4.3-1.3
		c-1.8,0-3.1,0.4-4.1,1.1s-1.8,2-2.2,3.7l-1.2-0.2c0.4-1.9,1.3-3.3,2.6-4.3s3-1.5,5.1-1.5c2.2,0,3.9,0.6,5.2,1.6
		C18.3,7.6,19,9.1,19,11c0,1.4-0.3,2.6-1,3.6c-0.6,1-1.6,1.7-2.8,2.2c2.9,0.9,4.4,2.9,4.4,6.1c0,2.3-0.7,4-2,5.2
		c-1.4,1.2-3.2,1.9-5.7,1.9s-4.4-0.5-5.8-1.7c-1.4-1.2-2.1-2.9-2.2-5h1.3c0.4,3.7,2.6,5.6,6.5,5.6c2,0,3.6-0.5,4.7-1.5
		S18,25,18,23.1c0-1.8-0.5-3.2-1.5-4.1c-1-1-2.4-1.4-4.2-1.4 M32.8,16.3c1.6,0,2.8-0.5,3.7-1.4s1.4-2.2,1.4-3.8s-0.5-2.8-1.5-3.7
		S34,6.1,32.1,6.1c-1.8,0-3.1,0.4-4.1,1.1c-1,0.8-1.8,2-2.2,3.7l-1.2-0.2c0.4-1.9,1.3-3.4,2.6-4.4c1.3-1,3-1.5,5.1-1.5
		c2.2,0,3.9,0.6,5.2,1.6c1.2,1.1,1.9,2.6,1.9,4.5c0,1.4-0.3,2.6-1,3.6c-0.6,1-1.6,1.7-2.8,2.2c2.9,0.9,4.4,2.9,4.4,6.1
		c0,2.3-0.7,4-2,5.2c-1.4,1.2-3.2,1.9-5.7,1.9s-4.2-0.6-5.6-1.8s-2.1-2.9-2.2-5h1.3c0.4,3.7,2.6,5.6,6.5,5.6c2,0,3.6-0.5,4.7-1.5
		c1.1-1,1.6-2.4,1.6-4.3c0-1.8-0.5-3.2-1.5-4.1c-1-1-2.4-1.4-4.2-1.4 M52.6,30.1c-2.7,0-4.8-1.1-6.3-3.2c-1.4-2.2-2.2-5.3-2.2-9.4
		s0.7-7.2,2.2-9.4s3.6-3.3,6.3-3.3c2.7,0,4.8,1.1,6.3,3.2c1.4,2.2,2.2,5.3,2.2,9.4s-0.7,7.2-2.2,9.4C57.4,29,55.3,30.1,52.6,30.1z
		 M52.6,28.8c4.7,0,7-3.8,7-11.4S57.3,6,52.6,6c-4.7,0-7,3.8-7,11.4S47.9,28.8,52.6,28.8z"/>
</g>
</svg>
