<svg width="1920" height="3758" viewBox="0 0 1920 3758" fill="none" xmlns="http://www.w3.org/2000/svg">
<line x1="342.355" y1="4.3526" x2="-26.6455" y2="375.353" stroke="#868686" stroke-opacity="0.33"/>
<line x1="1117.35" y1="5.35355" x2="-63.6465" y2="1186.35" stroke="#868686" stroke-opacity="0.33"/>
<line x1="678.354" y1="5.35355" x2="-26.6464" y2="710.354" stroke="#868686" stroke-opacity="0.33"/>
<line x1="1555.35" y1="0.353553" x2="-34.6465" y2="1590.35" stroke="#868686" stroke-opacity="0.33"/>
<line x1="511.354" y1="5.35355" x2="-4.64643" y2="521.354" stroke="#868686" stroke-opacity="0.33"/>
<line x1="1277.35" y1="5.35355" x2="-18.6464" y2="1301.35" stroke="#868686" stroke-opacity="0.33"/>
<line x1="874.354" y1="5.35355" x2="-26.6464" y2="906.354" stroke="#868686" stroke-opacity="0.33"/>
<line x1="434.354" y1="4.35355" x2="-8.64646" y2="447.354" stroke="#868686" stroke-opacity="0.33"/>
<line x1="773.354" y1="5.35355" x2="-13.6464" y2="792.354" stroke="#868686" stroke-opacity="0.33"/>
<line x1="587.354" y1="7.35355" x2="-8.64643" y2="603.354" stroke="#868686" stroke-opacity="0.33"/>
<line x1="1407.35" y1="5.35355" x2="-17.6465" y2="1430.35" stroke="#868686" stroke-opacity="0.33"/>
<line x1="984.354" y1="5.35355" x2="-27.6465" y2="1017.35" stroke="#868686" stroke-opacity="0.33"/>
<line x1="1120.35" y1="434.646" x2="3383.1" y2="2697.39" stroke="#868686" stroke-opacity="0.33"/>
<line x1="1189.35" y1="365.646" x2="3452.1" y2="2628.39" stroke="#868686" stroke-opacity="0.33"/>
<line x1="1265.35" y1="289.646" x2="3528.1" y2="2552.39" stroke="#868686" stroke-opacity="0.33"/>
<line x1="1336.35" y1="218.646" x2="3599.1" y2="2481.39" stroke="#868686" stroke-opacity="0.33"/>
<line x1="1050.35" y1="504.646" x2="3313.1" y2="2767.39" stroke="#868686" stroke-opacity="0.33"/>
<line x1="980.354" y1="573.646" x2="3243.1" y2="2836.39" stroke="#868686" stroke-opacity="0.33"/>
<line x1="907.354" y1="647.646" x2="3170.1" y2="2910.39" stroke="#868686" stroke-opacity="0.33"/>
<line x1="833.354" y1="710.646" x2="3096.1" y2="2973.39" stroke="#868686" stroke-opacity="0.33"/>
<line x1="735.354" y1="745.646" x2="2998.1" y2="3008.39" stroke="#868686" stroke-opacity="0.33"/>
<line x1="677.354" y1="816.646" x2="2940.1" y2="3079.39" stroke="#868686" stroke-opacity="0.33"/>
<line x1="605.354" y1="889.646" x2="2868.1" y2="3152.39" stroke="#868686" stroke-opacity="0.33"/>
<line x1="540.354" y1="1016.65" x2="2803.1" y2="3279.39" stroke="#868686" stroke-opacity="0.33"/>
<line x1="467.354" y1="1084.65" x2="2730.1" y2="3347.39" stroke="#868686" stroke-opacity="0.33"/>
<line x1="381.354" y1="1172.65" x2="2644.1" y2="3435.39" stroke="#868686" stroke-opacity="0.33"/>
<line x1="297.354" y1="1256.65" x2="2560.1" y2="3519.39" stroke="#868686" stroke-opacity="0.33"/>
<line x1="220.354" y1="1335.65" x2="2483.1" y2="3598.39" stroke="#868686" stroke-opacity="0.33"/>
<line x1="135.354" y1="1420.65" x2="2398.1" y2="3683.39" stroke="#868686" stroke-opacity="0.33"/>
<line x1="54.3536" y1="1494.65" x2="2317.1" y2="3757.39" stroke="#868686" stroke-opacity="0.33"/>
</svg>
