<?xml version="1.0" encoding="utf-8"?>
<!-- Generator: Adobe Illustrator 27.7.0, SVG Export Plug-In . SVG Version: 6.00 Build 0)  -->
<svg version="1.1" id="Layer_1" xmlns="http://www.w3.org/2000/svg" xmlns:xlink="http://www.w3.org/1999/xlink" x="0px" y="0px"
	 viewBox="0 0 142.2 77.9" style="enable-background:new 0 0 142.2 77.9;" xml:space="preserve">
<style type="text/css">
	.st0{fill:#FFFFFF;}
</style>
<path class="st0" d="M25.8,5.4c1.6-0.8,3.3-1.6,4.9-2.4c0.2-0.1,0.5-0.2,0.7-0.3c1-0.6,1.7-0.6,2.5-0.2c7.6,4,15.2,8,22.7,11.9
	c9.1,4.7,18.1,9.5,27.2,14.2c0.6,0.3,1.1,0.4,1.9,0c10.9-5.9,21.9-11.7,32.8-17.8c5-2.8,9.9-4.1,14.8-3.8c1.7,0.1,3.2,0.5,4.5,1.3
	c1.3,0.8,1.7,2.1,1.5,3.7c-0.2,1.5-1,3-1.9,4.4c-2.2,3.3-5.1,6.1-8.4,8.3c-1.8,1.2-3.7,2-5.6,2.9c-15,7.4-29.9,14.9-44.9,22.3
	c-14.8,7.3-29.5,14.6-44.3,21.9c-2.6,1.3-5.3,2.7-7.9,3.8c-2.9,1.2-5.4,1.3-7.2-0.5c-1.5-1.4-2.8-2.9-4.2-4.4
	c-0.2-0.2-0.4-0.3-0.6-0.5c-4-4.5-8-9.1-12.1-13.6c-0.3-0.5-0.6-1-1-1.5C1.7,55,2,54.8,2.3,54.6c3.2-1.5,0,0,3.2-1.6
	c0.9-0.5,1.6-0.5,2.4-0.1c5.4,2.7,10.8,5.4,16.2,8.1c0.4,0.2,0.7,0.2,1.2-0.1c8-4.3,22.4-11.7,30.4-16c1-0.5,2-1.1,3.2-1.7
	c-0.2-0.3-0.3-0.5-0.5-0.6c-7.7-8.7-15.3-17.4-23-26.1c-3.2-3.6-6.4-7.3-9.6-10.9C25.8,5.5,25.8,5.4,25.8,5.4"/>
</svg>
