<?xml version="1.0" encoding="UTF-8"?>
<svg id="Layer_1" data-name="Layer 1" xmlns="http://www.w3.org/2000/svg" viewBox="0 0 119.83 61.02">
  <path d="m18.1,27.9c3.47-1.09,6.85-1.78,10.3-1.95,3.71-.18,7.43-.36,11.13-.19,4.02.19,8.04.62,12.01,1.23,5.87.9,11.71,2.03,17.56,3.11,7.16,1.32,14.32,2.63,21.61,3.1,4.64.3,9.27.34,13.85-.65,1.13-.24,2.23-.62,3.43-.86-.52.38-1.02.81-1.57,1.15-2.48,1.53-5.25,2.23-8.09,2.72-4.96.85-9.96.9-14.96.69-6.53-.27-13.01-1.03-19.43-2.28-4.52-.88-9.04-1.84-13.59-2.51-7.18-1.07-14.41-1.4-21.63-.5-2.93.36-5.82,1.06-8.72,1.62-.3.06-.59.19-.95.31.24,1.12.47,2.2.71,3.34.99-.26,1.89-.53,2.81-.74,5.17-1.24,10.43-1.38,15.7-1.23,7.41.22,14.66,1.55,21.93,2.83,6.52,1.15,13.05,2.3,19.6,3.23,5.1.73,10.26.95,15.39.21,1.59-.23,3.15-.67,4.88-1.05-.66.44-1.21.87-1.81,1.2-2.44,1.35-5.11,1.94-7.84,2.31-6.12.84-12.25.57-18.38.04-5.36-.47-10.62-1.46-15.87-2.55-6.69-1.39-13.47-2.16-20.31-2.07-4.94.06-9.83.59-14.6,1.97-.12.03-.22.07-.45.15.35,1.25.69,2.47,1.05,3.74,1.06-.33,2.03-.67,3.03-.94,5.03-1.31,10.17-1.47,15.33-1.22,7.71.37,15.25,1.96,22.81,3.34,5.78,1.06,11.56,2.07,17.45,2.31,3.24.13,6.46.09,9.63-.65.67-.16,1.33-.38,2.01-.51-1.05.99-2.32,1.56-3.67,1.99-3.34,1.08-6.79,1.37-10.27,1.42-7.66.11-15.2-.77-22.68-2.4-6.21-1.35-12.5-2.08-18.86-1.95-4.36.09-8.66.62-12.85,1.9-.18.05-.37.12-.55.19-.04.01-.06.07-.17.18.43,1.09.88,2.23,1.31,3.33,1.55-.42,3-.9,4.48-1.2,4.34-.89,8.74-.85,13.13-.5,5.79.46,11.47,1.67,17.17,2.71,4.77.87,9.56,1.69,14.43,1.81,1.5.04,3.01.01,4.51-.13,1.46-.14,2.9-.49,4.35-.74-1.07.92-2.38,1.4-3.73,1.77-3.29.88-6.66.96-10.05.92-6.02-.08-11.92-1.06-17.8-2.27-5.7-1.17-11.49-1.72-17.3-1.09-2.38.25-4.72.84-7.08,1.29-.23.04-.44.16-.88.33,1.26,1.77,2.45,3.44,3.64,5.11-.04.04-.08.08-.11.13-.3-.17-.65-.3-.89-.53-1.28-1.22-2.55-2.45-3.77-3.73-.32-.33-.54-.43-.97-.24-1.85.83-3.58,1.83-5.11,3.23,0-.85.55-2.27,1.45-3.32.78-.91,1.7-1.7,2.59-2.58-.59-1.09-1.21-2.26-1.87-3.49-2.42,1-4.61,2.31-6.61,4.18.69-2.9,2.17-5.1,4.5-6.68.67-.45.76-.81.44-1.51-.46-.99-.78-2.03-1.2-3.15-3.23,1.24-6.2,2.86-8.79,5.34.77-3.25,2.42-5.77,5.01-7.66.69-.5,1.44-.9,2.14-1.38.16-.11.35-.39.31-.54-.26-1.05-.58-2.09-.9-3.22-3.64,1.43-6.95,3.3-9.87,6.11.72-2.96,1.91-5.46,4.05-7.38,1.27-1.14,2.76-2.04,4.14-3.06.19-.14.5-.38.47-.53-.31-1.61-.67-3.22-1.04-4.9-4.87,1.7-9,4.23-11.62,8.78-.07-.02-.14-.05-.21-.08.16-1.53.23-3.07.49-4.59.71-4.27,2.22-8.21,5.19-11.44,1.11-1.2,2.46-2.19,3.75-3.21.41-.32.52-.57.46-1.07-.45-3.56-.86-7.13-1.29-10.7-.02-.14,0-.29,0-.54.51.32.95.6,1.39.88,1.18.76,2.38,1.51,3.54,2.3.24.16.46.5.49.78.18,1.52.29,3.05.43,4.57.04.43.1.86.16,1.38.66-.15,1.26-.29,1.86-.41,3.92-.8,7.87-.75,11.82-.38,9.47.91,18.59,3.41,27.69,6.04,7.34,2.13,14.63,4.44,22.03,6.37,7.8,2.03,15.71,3.58,23.8,3.94,4.47.2,8.87-.33,13.15-1.71.25-.08.49-.14.86-.24-.58,1.04-1.42,1.6-2.3,2.1-2.04,1.14-4.28,1.68-6.57,2.05-4.63.75-9.29.7-13.95.43-7.6-.44-15.09-1.69-22.57-2.98-6.89-1.19-13.76-2.46-20.68-3.46-4.44-.65-8.92-.98-13.4-1.28-5.16-.35-10.34-.19-15.48.47-1.44.18-2.87.46-4.3.73-.18.04-.49.28-.47.39.19,1.46.42,2.91.66,4.45"/>
</svg>