<svg width="25" height="24" viewBox="0 0 25 24" fill="none" xmlns="http://www.w3.org/2000/svg">
<path d="M12.5 2C9.88 2 7.75 4.13 7.75 6.75C7.75 9.32 9.76 11.4 12.38 11.49C12.46 11.48 12.54 11.48 12.6 11.49C12.62 11.49 12.63 11.49 12.65 11.49C12.66 11.49 12.66 11.49 12.67 11.49C15.23 11.4 17.24 9.32 17.25 6.75C17.25 4.13 15.12 2 12.5 2Z" fill="#222222"/>
<path d="M17.58 13.395C14.79 11.535 10.24 11.535 7.43 13.395C6.16 14.245 5.46 15.395 5.46 16.625C5.46 17.855 6.16 18.995 7.42 19.835C8.82 20.775 10.66 21.245 12.5 21.245C14.34 21.245 16.18 20.775 17.58 19.835C18.84 18.985 19.54 17.845 19.54 16.605C19.53 15.375 18.84 14.235 17.58 13.395Z" fill="#222222"/>
</svg>
