<?xml version="1.0" encoding="UTF-8"?>
<svg id="Layer_1" data-name="Layer 1" xmlns="http://www.w3.org/2000/svg" viewBox="0 0 103.15 76.87">
  <path d="m87.6,53.84c-2.78-7.19.43-21.5-3.42-25.06-3.15-2.92-6.31-1.67-7.34-1.13-.34-.22-.66-.47-.95-.73-3.56-3.14-7.69-4.43-12.39-3.84-3,.37-5.97.25-8.97-.01-3.86-.34-7.13-1.84-9.92-4.46-.12-.12-.16-.33-.22-.49-.09-.24-.08-.58-.25-.71-.35-.27-.77-.52-1.19-.64-.79-.23-1.37-.69-1.77-1.36-.72-1.21-1.41-2.43-2.09-3.66-.41-.74-.71-1.54-1.17-2.25-2.13-3.29-5.16-5.32-8.94-6.2-1.58-.37-3.21-.62-4.82-.82-1.83-.23-3.68-.35-5.47.26-1.92.66-3.82,1.36-5.72,2.06-.16.06-.3.21-.43.33-.82.75-1.64,1.51-2.49,2.28-.57-.35-1.16-.7-1.74-1.05-.07.04-.14.08-.21.13.11.91.2,1.83.35,2.73-2.79,3.77-1.2,7.55-1.2,7.55l1.35-1.86c.26,1.36.55,2.8.81,4.25.49,2.78.69,5.58.68,8.4,0,1.3.5,2.07,1.5,2.44.46.17.9.42,1.38.56.45.13.92.24,1.38.21.92-.07,1.69-.52,2.37-1.12.64-.56.94-1.21.52-2.03-.26-.52-.23-1.03-.03-1.56.47-1.26.97-2.51,1.36-3.8.39-1.31,1.59-1.95,2.26-3.02.11.07.15.09.17.13.97,1.53,1.94,3.07,2.9,4.61.06.1.06.24.07.36.02,2.13.06,4.26-.57,6.34-.77,2.54-.62,4.95.89,7.25.8,1.21.73,1.34-.47,2.17-2.17,1.48-4.37,2.92-6.54,4.39-.56.38-1.14.77-1.62,1.24-.87.84-1.12,1.88-.66,3.02.28.69.62,1.35,1.01,1.98,1.58,2.56,3.11,5.13,3.98,8.04.22.75.73,1.27,1.41,1.66.84.48,1.64,1.04,2.5,1.5.48.26,1.01.45,1.54.56,1.01.22,2.03.34,3.05.54,1.09.2,1.6-.23,1.31-1.3-.22-.81-.63-1.56-.97-2.33-.58-1.33-1.64-1.88-3.06-1.93-.45-.02-.89-.23-1.27-.33.07-.34.12-.55.16-.76-.34-.07-.61-.48-.76-.5-.84-.11-1.17-.75-1.57-1.3-.13-.19-.14-.47-.21-.71.05-.02.1-.04.16-.07-.36-.54-.93-.88-1.03-1.67-.1-.69-.73-1.31-1.07-1.99-.29-.58-.51-1.2-.78-1.85.3-.1.49-.16.68-.22,3.44-1.01,6.89-2.01,10.33-3.03.45-.13.75-.04.88.39.26.87.59,1.74.71,2.62.42,3.01.65,6.05,1.15,9.04.61,3.64.74,7.28.47,10.95-.05.68-.3,1.47-.73,1.98-1.37,1.65-2.18,3.61-3.23,5.43-.3.52-.19.75.41.74,1.44-.03,2.89-.09,4.33-.23.36-.04.79-.39,1-.72.48-.72.84-1.51,1.26-2.27.07-.13.18-.24.35-.49.14.43.24.71.32.95.39-1.17.72-2.36,1.18-3.51.43-1.05.62-2.11.56-3.24,0-.08.02-.16.04-.28.15.09.28.17.54.33-.43-1.21-.82-2.27-1.21-3.33-.06-.16-.16-.3-.29-.57.26.12.38.18.56.26-.22-.66-.43-1.27-.63-1.88.11.02.2.03.41.07-.29-.33-.48-.61-.72-.82-.47-.41-.57-.87-.47-1.49.18-1.04.29-2.09.34-3.14.11-2.56.11-5.13.26-7.7.08-1.45.36-2.89.56-4.45,1.05.2,1.98.3,2.86.56,3.92,1.14,7.9.95,11.88.52,1.9-.21,3.66-1,5.39-1.81.45-.21.73-.14,1.08.22.87.91,1.56,1.91,1.93,3.13.84,2.7,2.25,5.05,4.35,6.97.48.43.91.91,1.34,1.38.16.18.33.39.41.61.37,1.01.72,2.03,1.06,3.05.05.15.06.4-.03.5-.91,1.01-1.74,2.13-2.8,2.96-1.44,1.14-3.02,2.1-4.6,3.05-1.11.67-2.02,1.4-2.5,2.69-.31.85-.93,1.61-1.51,2.32-.76.94-1.22,1.93-1.18,3.16.03.97-.07,1.94-.07,2.92,0,.19.19.47.35.53.27.1.61.1.9.04,1.16-.24,2.13-.87,3.03-1.63.57-.47.92-1.02.89-1.81-.02-.55.09-1.1.13-1.66.05,0,.11,0,.16,0,.1.16.2.32.32.52.16-.56.23-1.09.45-1.54.33-.68.75-1.33,1.2-1.93.2-.27.6-.39.88-.62.48-.4.92-.86,1.41-1.26.33-.26.72-.46,1.07-.71,1.33-.95,2.65-1.91,3.97-2.86.2-.14.43-.24.66-.33.28-.11.47-.04.52.31.19,1.29.43,2.57.57,3.87.17,1.57.12,3.04-1.33,4.18-.72.56-1.19,1.47-1.68,2.27-.39.64-.63,1.38-.97,2.05-.31.61-.26.81.41.83,1.24.04,2.49.07,3.72-.01.45-.03,1.03-.26,1.29-.59.48-.63.95-1.38,1.11-2.13.39-1.87,1.2-3.66,1.14-5.62,0-.14,0-.37.07-.41.4-.19.18-.46.11-.69-.2-.68-.42-1.36-.66-2.13.23.09.34.13.45.17-.04-.5-.64-.95-.05-1.48-.09-.15-.16-.33-.28-.47-.72-.79-1-1.74-1.09-2.77-.1-1.24-.24-2.47-.3-3.71-.05-1.1-.4-2-1.22-2.75-.19-.17-.33-.49-.33-.75-.02-1.18-.07-2.36.05-3.54.08-.8.32-1.62.68-2.34.54-1.09,1.25-2.09,1.88-3.14,1.67-2.79,2.91-5.71,2.84-9.05-.01-.63-.01-1.26,0-1.95,2.13,4.56-.97,17.14,2.16,24.03,3.56,7.83,15.24,5.77,15.24,5.77,0,0-5.41-1.57-8.19-8.76"/>
</svg>