<?xml version="1.0" encoding="UTF-8"?>
<svg id="Layer_1" data-name="Layer 1" xmlns="http://www.w3.org/2000/svg" viewBox="0 0 89.15 73.18">
  <path d="m60.63,30.96c-.82-.48-1.52-.91-2.24-1.31-.1-.06-.27-.03-.4,0-1.26.22-2.51.54-3.78.64-3.06.25-6.12.46-9.19.55-1.87.06-1.89-.06-1.73,1.82.09,1.07.24,2.14.35,3.07,5.59-1.86,11.27-3.07,16.99-4.76M21.41.5c.81.19,1.61.36,2.42.56,2.81.69,4.02,2.71,4.41,5.26.22,1.46.06,2.92-.51,4.28-1.49,3.6-3,7.2-4.57,10.77-.87,1.98-.94,3.94-.19,5.96.73,1.98,2.52,3.06,4.65,2.58,1.84-.41,3.37-1.74,3.21-4.09-.11-1.57-.25-3.14-.21-4.71.09-2.84,1.5-5.14,3.38-7.13,1.01-1.06,2.2-1.96,3.39-2.82q4.2-3.01,9.2-4.09c2.44-.54,4.87-.64,7.2.48.91.44,1.86.85,2.62,1.86-.66-.09-1.15-.16-1.83-.26.69.59,1.26,1.06,1.82,1.53-.06.05-.12.1-.19.16-.6-.11-1.2-.22-1.81-.32l-.08.26c.82.45,1.64.92,2.48,1.34,1.88.94,3.46,2.22,4.74,3.91.57.75,1.39,1.35,2.2,1.88.95.63,2.01,1.09,3.01,1.64,2.58,1.43,4.74,3.42,6.9,5.4,1.01.93,2.02,1.89,2.93,2.92.54.61.9,1.37,1.28,2.18-5.46-3.24-11.09-3.65-17.02-1.26.9.44,1.78.93,2.71,1.3.68.28,1.21.89,1.13,1.63-.06.6-.41.91-1.03.99-1.12.13-2.26.23-3.34.5-4.35,1.12-8.69,2.3-13.04,3.46-.38.1-.55.28-.68.67-.42,1.26-.3,2.42.36,3.57.37.64.24,1.2-.25,1.51-.5.32-1.11.2-1.59-.33-.23-.26-.46-.53-.76-.88.18,1.29.46,2.46.48,3.64.03,1.44-.2,2.89-.24,4.34-.07,2.59-.18,5.18-.11,7.77.09,3.71.31,7.42.51,11.13.02.43.16.89.36,1.27.85,1.54.25,3.24-1.42,3.82-1.04.36-2.08.52-3.21.38-1.34-.17-2.71-.06-4.06-.07-.89,0-1.44-.38-1.76-1.18-.28-.67.16-1.29.97-1.38,1.7-.18,3.4-.36,5.1-.55.61-.07,1.23-.21,1.84-.24.69-.03.9-.38.87-1.01-.05-1.21-.06-2.42-.11-3.64-.17-4.73-.33-9.47-.55-14.21-.05-1.16-.34-2.3-.46-3.46-.09-.89-.19-1.8-.14-2.7.23-4.11-.03-8.19-.75-12.23-.21-1.17-.82-2.27-1.29-3.38-.23-.56-.69-.74-1.32-.76-1.7-.03-3.02.65-4.1,1.94-1.85,2.21-4.23,3.46-7.11,3.6-2.75.13-5.25-.57-7.15-2.72-1.02-1.15-1.3-2.61-1.57-4.07-.35-1.93-.14-3.8.61-5.6,1.09-2.59,2.2-5.16,3.3-7.74.54-1.27,1.16-2.52,1.58-3.82.34-1.05.56-2.16.65-3.26.13-1.65-1.16-2.75-2.81-2.4-.44.09-.89.46-1.18.82-.88,1.15-1.89,2.11-3.29,2.51-2.25.64-2.98,2.45-3.41,4.42-.21.93-.09,1.94-.13,2.91-.02.47-.08.94-.13,1.42-.1.03-.21.06-.31.09-.42-.58-.94-1.11-1.24-1.75-.63-1.32-1.23-2.68-1.69-4.08-.18-.53-.13-1.29.13-1.79,1.16-2.21,2.4-4.38,3.68-6.53.8-1.34,2.07-1.98,3.62-2.1.16-.01.32-.08.48-.12h2.43Z"/>
</svg>