<?xml version="1.0" encoding="UTF-8"?>
<svg id="Layer_1" data-name="Layer 1" xmlns="http://www.w3.org/2000/svg" viewBox="0 0 114.82 78.43">
  <path d="m97.82,59.2v-31.22c-4.18,1.38-8.28,2.74-12.39,4.1-8.84,2.92-17.66,5.87-26.51,8.72-.94.31-2.1.3-3.04-.01-17.6-5.76-35.19-11.58-52.78-17.39-.16-.06-.32-.14-.48-.18-1.1-.28-1.87-.95-1.88-2.28,0-1.34.75-1.96,1.84-2.31,3.31-1.07,6.61-2.19,9.92-3.29C26.98,10.55,41.45,5.75,55.95,1.02c.9-.3,2.02-.3,2.93,0,17.64,5.77,35.27,11.61,52.89,17.43.2.07.4.15.6.22.98.33,1.64,1.01,1.65,2.2.02,1.27-.67,1.96-1.71,2.3-3.06,1.01-6.13,2.03-9.19,3.05-.4.13-.78.28-1.18.43v32.54c1.36.3,1.89,1.29,2.08,2.76.57,4.13,1.23,8.24,1.85,12.37.28,1.87-.57,2.99-2.28,3-2.49.03-4.98.03-7.46,0-1.66-.02-2.53-1.13-2.26-2.91.6-4.12,1.28-8.23,1.85-12.37.2-1.5.69-2.58,2.1-2.87"/>
  <path d="m27.02,36.03c1.25.4,2.36.75,3.48,1.12,8.19,2.7,16.38,5.38,24.56,8.12,1.6.54,3.11.52,4.7-.01,8.75-2.91,17.5-5.78,26.25-8.67.52-.17,1.03-.34,1.72-.56v1.66c0,7.57-.07,15.13.04,22.69.04,2.92-1.04,4.95-3.11,6.49-3.18,2.36-6.8,3.47-10.49,4.24-11.6,2.4-23.2,2.38-34.77-.28-3.1-.71-6.12-1.74-8.85-3.61-2.36-1.62-3.65-3.75-3.58-7.04.14-7.47.05-14.94.05-22.42v-1.73Z"/>
</svg>