<svg width="37" height="29" viewBox="0 0 37 29" fill="none" xmlns="http://www.w3.org/2000/svg">
<path d="M16.1701 15.0598H7.83007C6.65007 15.0598 6.24007 14.2698 6.93007 13.3098L11.1001 7.46982C11.5901 6.76982 12.4101 6.76982 12.9001 7.46982L17.0701 13.3098C17.7601 14.2698 17.3501 15.0598 16.1701 15.0598Z" fill="#292D32"/>
<path d="M33.2857 11H21.7143C20.0771 11 19.5083 9.92914 20.4656 8.62785L26.2513 0.711645C26.9311 -0.237215 28.0689 -0.237215 28.7487 0.711645L34.5344 8.62785C35.4917 9.92914 34.9229 11 33.2857 11Z" fill="#292D32"/>
<path d="M17.5901 23.0001H6.41009C4.83009 23.0001 4.29009 21.9501 5.22009 20.6701L9.21009 15.0601H14.7901L18.7801 20.6701C19.7101 21.9501 19.1701 23.0001 17.5901 23.0001Z" fill="#292D32"/>
<path d="M34.7253 22H19.2747C17.0911 22 16.3448 20.5453 17.6301 18.772L23.1442 11H30.8558L36.3699 18.772C37.6552 20.5453 36.9089 22 34.7253 22Z" fill="#292D32"/>
<path d="M12.75 23V27C12.75 27.41 12.41 27.75 12 27.75C11.59 27.75 11.25 27.41 11.25 27V23H12.75Z" fill="#292D32"/>
<path d="M28 22V27.8947C28 28.4989 27.5467 29 27 29C26.4533 29 26 28.4989 26 27.8947V22H28Z" fill="#292D32"/>
</svg>
