<?xml version="1.0" encoding="utf-8"?>
<!-- Generator: Adobe Illustrator 27.7.0, SVG Export Plug-In . SVG Version: 6.00 Build 0)  -->
<svg version="1.1" id="Layer_1" xmlns="http://www.w3.org/2000/svg" xmlns:xlink="http://www.w3.org/1999/xlink" x="0px" y="0px"
	 viewBox="0 0 566 233" style="enable-background:new 0 0 566 233;" xml:space="preserve">
<style type="text/css">
	.st0{fill:#89D2D8;}
	.st1{fill:none;stroke:#000000;stroke-width:0.24;stroke-linecap:round;stroke-linejoin:round;}
	.st2{fill:#4FC9F1;}
	.st3{fill:#65B3C7;}
	.st4{fill:#BFE7FA;}
	.st5{fill:#D4D6E8;}
	.st6{fill:#B8BBBB;}
	.st7{fill:#5B5F60;}
</style>
<polygon class="st0" points="327.7,123.6 327.7,150.1 283.1,150.1 283.1,228.7 310.2,228.7 310.2,217.7 342.8,217.7 342.8,140.7 
	348.7,140.7 348.7,123.6 "/>
<line class="st1" x1="348.7" y1="140.7" x2="348.7" y2="123.6"/>
<line class="st1" x1="348.7" y1="123.6" x2="327.7" y2="123.6"/>
<line class="st1" x1="327.7" y1="123.6" x2="327.7" y2="150.1"/>
<line class="st1" x1="327.7" y1="150.1" x2="283.1" y2="150.1"/>
<line class="st1" x1="283.1" y1="150.1" x2="283.1" y2="228.7"/>
<line class="st1" x1="283.1" y1="228.7" x2="310.2" y2="228.7"/>
<line class="st1" x1="310.2" y1="228.7" x2="310.2" y2="217.7"/>
<line class="st1" x1="310.2" y1="217.7" x2="342.8" y2="217.7"/>
<line class="st1" x1="342.8" y1="217.7" x2="342.8" y2="140.7"/>
<line class="st1" x1="342.8" y1="140.7" x2="348.7" y2="140.7"/>
<polygon class="st2" points="508.1,67.4 508.1,109.6 482.5,109.6 482.5,123.6 508.1,123.6 508.1,166.2 534.4,166.2 534.4,157 
	562.1,157 562.1,76.8 534.3,76.8 534.3,67.4 "/>
<line class="st1" x1="508.1" y1="109.6" x2="482.5" y2="109.6"/>
<line class="st1" x1="482.5" y1="109.6" x2="482.5" y2="123.6"/>
<line class="st1" x1="482.5" y1="123.6" x2="508.1" y2="123.6"/>
<line class="st1" x1="508.1" y1="123.6" x2="508.1" y2="166.2"/>
<line class="st1" x1="508.1" y1="166.2" x2="534.4" y2="166.2"/>
<line class="st1" x1="534.4" y1="166.2" x2="534.4" y2="157"/>
<line class="st1" x1="534.4" y1="157" x2="562.1" y2="157"/>
<line class="st1" x1="562.1" y1="157" x2="562.1" y2="76.8"/>
<line class="st1" x1="562.1" y1="76.8" x2="534.2" y2="76.8"/>
<line class="st1" x1="534.3" y1="76.8" x2="534.3" y2="67.4"/>
<line class="st1" x1="534.3" y1="67.4" x2="508.1" y2="67.4"/>
<line class="st1" x1="508.1" y1="67.4" x2="508.1" y2="109.6"/>
<polygon class="st2" points="399.6,36.9 399.6,109.6 508.1,109.6 508.1,61.5 480.8,61.5 480.8,52.2 454.8,52.2 454.8,46.6 
	425.8,46.6 425.8,36.9 "/>
<line class="st1" x1="425.8" y1="36.9" x2="399.6" y2="36.9"/>
<line class="st1" x1="399.6" y1="36.9" x2="399.6" y2="109.6"/>
<line class="st1" x1="399.6" y1="109.6" x2="508.1" y2="109.6"/>
<line class="st1" x1="508.1" y1="109.6" x2="508.1" y2="61.5"/>
<line class="st1" x1="508.1" y1="61.5" x2="480.8" y2="61.5"/>
<line class="st1" x1="480.8" y1="61.5" x2="480.8" y2="52.2"/>
<line class="st1" x1="480.8" y1="52.2" x2="454.8" y2="52.2"/>
<line class="st1" x1="454.8" y1="52.2" x2="454.8" y2="46.6"/>
<line class="st1" x1="454.8" y1="46.6" x2="425.8" y2="46.6"/>
<line class="st1" x1="425.8" y1="46.6" x2="425.8" y2="36.9"/>
<polygon class="st3" points="343.7,21.5 343.7,90.4 350.8,90.4 350.8,109.8 370.6,109.8 370.6,95.4 399.6,95.4 399.6,31 371.1,31 
	371.1,21.5 "/>
<line class="st1" x1="371.1" y1="21.5" x2="343.7" y2="21.5"/>
<line class="st1" x1="343.7" y1="21.5" x2="343.7" y2="90.4"/>
<line class="st1" x1="343.7" y1="90.4" x2="350.8" y2="90.4"/>
<line class="st1" x1="350.8" y1="90.4" x2="350.8" y2="109.8"/>
<line class="st1" x1="350.8" y1="109.8" x2="370.6" y2="109.8"/>
<line class="st1" x1="370.6" y1="109.8" x2="370.6" y2="95.4"/>
<line class="st1" x1="370.6" y1="95.4" x2="399.6" y2="95.4"/>
<line class="st1" x1="399.6" y1="95.4" x2="399.6" y2="31"/>
<line class="st1" x1="399.6" y1="31" x2="371.1" y2="31"/>
<line class="st1" x1="371.1" y1="31" x2="371.1" y2="21.5"/>
<polygon class="st0" points="283.1,4.8 283.1,83.5 327.6,83.5 327.6,109.8 350.8,109.8 350.8,90.4 343.7,90.4 343.7,15.8 
	310.2,15.8 310.2,4.8 "/>
<line class="st1" x1="350.8" y1="90.4" x2="343.7" y2="90.4"/>
<line class="st1" x1="343.7" y1="90.4" x2="343.7" y2="15.8"/>
<line class="st1" x1="343.7" y1="15.8" x2="310.2" y2="15.8"/>
<line class="st1" x1="310.2" y1="15.8" x2="310.2" y2="4.8"/>
<line class="st1" x1="310.2" y1="4.8" x2="283.1" y2="4.8"/>
<line class="st1" x1="283.1" y1="4.8" x2="283.1" y2="83.5"/>
<line class="st1" x1="283.1" y1="83.5" x2="327.6" y2="83.5"/>
<line class="st1" x1="327.6" y1="83.5" x2="327.6" y2="109.8"/>
<line class="st1" x1="327.6" y1="109.8" x2="350.8" y2="109.8"/>
<line class="st1" x1="350.8" y1="109.8" x2="350.8" y2="90.4"/>
<polygon class="st0" points="256.1,4.7 256.1,15.8 221.2,15.8 221.2,78.2 207.3,78.2 207.3,89.8 225.8,89.8 225.8,109.8 
	239.1,109.8 239.1,83.5 283.1,83.5 283.1,4.7 "/>
<line class="st1" x1="225.8" y1="89.8" x2="225.8" y2="109.8"/>
<line class="st1" x1="225.8" y1="109.8" x2="239.1" y2="109.8"/>
<line class="st1" x1="239.1" y1="109.8" x2="239.1" y2="83.5"/>
<line class="st1" x1="239.1" y1="83.5" x2="283.1" y2="83.5"/>
<line class="st1" x1="283.1" y1="83.5" x2="283.1" y2="4.7"/>
<line class="st1" x1="283.1" y1="4.7" x2="256.1" y2="4.7"/>
<line class="st1" x1="256.1" y1="4.7" x2="256.1" y2="15.8"/>
<line class="st1" x1="256.1" y1="15.8" x2="221.2" y2="15.8"/>
<line class="st1" x1="221.2" y1="15.8" x2="221.2" y2="78.2"/>
<line class="st1" x1="221.2" y1="78.2" x2="207.3" y2="78.2"/>
<line class="st1" x1="207.3" y1="78.2" x2="207.3" y2="89.8"/>
<line class="st1" x1="207.3" y1="89.8" x2="225.8" y2="89.8"/>
<polygon class="st2" points="195,21.5 195,31 166.4,31 166.4,36.9 139,36.9 139,109.7 196.5,109.7 196.5,89.8 207.3,89.8 
	207.3,78.2 221.2,78.2 221.2,21.5 "/>
<line class="st1" x1="166.4" y1="36.9" x2="139" y2="36.9"/>
<line class="st1" x1="139" y1="36.9" x2="139" y2="109.6"/>
<line class="st1" x1="139" y1="109.6" x2="196.5" y2="109.6"/>
<line class="st1" x1="196.5" y1="109.6" x2="196.5" y2="89.8"/>
<line class="st1" x1="196.5" y1="89.8" x2="207.3" y2="89.8"/>
<line class="st1" x1="207.3" y1="89.8" x2="207.3" y2="78.2"/>
<line class="st1" x1="207.3" y1="78.2" x2="221.2" y2="78.2"/>
<line class="st1" x1="221.2" y1="78.2" x2="221.2" y2="21.5"/>
<line class="st1" x1="221.2" y1="21.5" x2="195" y2="21.5"/>
<line class="st1" x1="195" y1="21.5" x2="195" y2="31"/>
<line class="st1" x1="195" y1="31" x2="166.4" y2="31"/>
<line class="st1" x1="166.4" y1="31" x2="166.4" y2="36.9"/>
<polygon class="st0" points="454.7,123.6 454.7,181.2 480.8,181.2 480.8,172 508.1,172 508.1,123.6 "/>
<line class="st1" x1="454.7" y1="181.2" x2="480.8" y2="181.2"/>
<line class="st1" x1="480.8" y1="181.2" x2="480.8" y2="172"/>
<line class="st1" x1="480.8" y1="172" x2="508.1" y2="172"/>
<line class="st1" x1="508.1" y1="172" x2="508.1" y2="123.6"/>
<line class="st1" x1="508.1" y1="123.6" x2="454.7" y2="123.6"/>
<line class="st1" x1="454.7" y1="123.6" x2="454.7" y2="181.2"/>
<polygon class="st3" points="348.7,123.6 348.7,140.7 342.8,140.7 342.8,211.9 371.1,211.9 371.1,202.3 399.6,202.3 399.6,140.3 
	372.6,140.3 372.6,123.6 "/>
<line class="st1" x1="372.6" y1="123.6" x2="348.7" y2="123.6"/>
<line class="st1" x1="348.7" y1="123.6" x2="348.7" y2="140.7"/>
<line class="st1" x1="348.7" y1="140.7" x2="342.8" y2="140.7"/>
<line class="st1" x1="342.8" y1="140.7" x2="342.8" y2="211.9"/>
<line class="st1" x1="342.8" y1="211.9" x2="371.1" y2="211.9"/>
<line class="st1" x1="371.1" y1="211.9" x2="371.1" y2="202.3"/>
<line class="st1" x1="371.1" y1="202.3" x2="399.6" y2="202.3"/>
<line class="st1" x1="399.6" y1="202.3" x2="399.6" y2="140.3"/>
<line class="st1" x1="399.6" y1="140.3" x2="372.6" y2="140.3"/>
<line class="st1" x1="372.6" y1="140.3" x2="372.6" y2="123.6"/>
<polygon class="st0" points="218.4,123.8 218.4,136.8 222.7,136.8 222.7,217.9 256,217.9 256,228.8 283.1,228.8 283.1,150.1 
	238.2,150.1 238.2,123.8 "/>
<line class="st1" x1="218.4" y1="136.8" x2="222.7" y2="136.8"/>
<line class="st1" x1="222.7" y1="136.8" x2="222.7" y2="217.9"/>
<line class="st1" x1="222.7" y1="217.9" x2="256" y2="217.9"/>
<line class="st1" x1="256" y1="217.9" x2="256" y2="228.8"/>
<line class="st1" x1="256" y1="228.8" x2="283.1" y2="228.8"/>
<line class="st1" x1="283.1" y1="228.8" x2="283.1" y2="150.1"/>
<line class="st1" x1="283.1" y1="150.1" x2="238.2" y2="150.1"/>
<line class="st1" x1="238.2" y1="150.1" x2="238.2" y2="123.8"/>
<line class="st1" x1="238.2" y1="123.8" x2="218.4" y2="123.8"/>
<line class="st1" x1="218.4" y1="123.8" x2="218.4" y2="136.8"/>
<polygon class="st0" points="182.3,123.8 182.3,152.8 166.5,152.8 166.5,202.5 195,202.5 195,212.1 222.7,212.1 222.7,136.8 
	218.4,136.8 218.4,123.8 "/>
<line class="st1" x1="182.3" y1="152.8" x2="166.5" y2="152.8"/>
<line class="st1" x1="166.5" y1="152.8" x2="166.5" y2="202.5"/>
<line class="st1" x1="166.5" y1="202.5" x2="195" y2="202.5"/>
<line class="st1" x1="195" y1="202.5" x2="195" y2="212.1"/>
<line class="st1" x1="195" y1="212.1" x2="222.7" y2="212.1"/>
<line class="st1" x1="222.7" y1="212.1" x2="222.7" y2="136.8"/>
<line class="st1" x1="222.7" y1="136.8" x2="218.4" y2="136.8"/>
<line class="st1" x1="218.4" y1="136.8" x2="218.4" y2="123.8"/>
<line class="st1" x1="218.4" y1="123.8" x2="182.3" y2="123.8"/>
<line class="st1" x1="182.3" y1="123.8" x2="182.3" y2="152.8"/>
<polygon class="st3" points="111.6,123.8 111.6,187.2 140.4,187.2 140.4,196.7 166.5,196.7 166.5,123.8 "/>
<line class="st1" x1="166.5" y1="123.8" x2="111.6" y2="123.8"/>
<line class="st1" x1="111.6" y1="123.8" x2="111.6" y2="187.2"/>
<line class="st1" x1="111.6" y1="187.2" x2="140.4" y2="187.2"/>
<line class="st1" x1="140.4" y1="187.2" x2="140.4" y2="196.7"/>
<line class="st1" x1="140.4" y1="196.7" x2="166.5" y2="196.7"/>
<line class="st1" x1="166.5" y1="196.7" x2="166.5" y2="123.8"/>
<polygon class="st0" points="58.1,123.8 58.1,172 85.4,172 85.4,181.2 111.6,181.2 111.6,123.8 "/>
<line class="st1" x1="111.6" y1="123.8" x2="58.1" y2="123.8"/>
<line class="st1" x1="58.1" y1="123.8" x2="58.1" y2="172"/>
<line class="st1" x1="58.1" y1="172" x2="85.4" y2="172"/>
<line class="st1" x1="85.4" y1="172" x2="85.4" y2="181.2"/>
<line class="st1" x1="85.4" y1="181.2" x2="111.6" y2="181.2"/>
<line class="st1" x1="111.6" y1="181.2" x2="111.6" y2="123.8"/>
<polygon class="st0" points="85.3,52.2 85.3,61.7 58.1,61.7 58.1,109.6 111.6,109.6 111.6,52.2 "/>
<line class="st1" x1="85.3" y1="61.7" x2="58.1" y2="61.7"/>
<line class="st1" x1="58.1" y1="61.7" x2="58.1" y2="109.6"/>
<line class="st1" x1="58.1" y1="109.6" x2="111.6" y2="109.6"/>
<line class="st1" x1="111.6" y1="109.6" x2="111.6" y2="52.2"/>
<line class="st1" x1="111.6" y1="52.2" x2="85.3" y2="52.2"/>
<line class="st1" x1="85.3" y1="52.2" x2="85.3" y2="61.7"/>
<polygon class="st2" points="31.8,67.4 31.8,76.6 4.1,76.6 4.1,157 31.8,157 31.8,166.2 58.1,166.2 58.1,123.8 83.6,123.8 
	83.6,109.6 58.1,109.6 58.1,67.4 "/>
<line class="st1" x1="58.1" y1="109.6" x2="58.1" y2="67.4"/>
<line class="st1" x1="58.1" y1="67.4" x2="31.8" y2="67.4"/>
<line class="st1" x1="31.8" y1="67.4" x2="31.8" y2="76.6"/>
<line class="st1" x1="31.8" y1="76.6" x2="4.1" y2="76.6"/>
<line class="st1" x1="4.1" y1="76.6" x2="4.1" y2="157"/>
<line class="st1" x1="4.1" y1="157" x2="31.8" y2="157"/>
<line class="st1" x1="31.8" y1="157" x2="31.8" y2="166.2"/>
<line class="st1" x1="31.8" y1="166.2" x2="58.1" y2="166.2"/>
<line class="st1" x1="58.1" y1="166.2" x2="58.1" y2="123.8"/>
<line class="st1" x1="58.1" y1="123.8" x2="83.6" y2="123.8"/>
<line class="st1" x1="83.6" y1="123.8" x2="83.6" y2="109.6"/>
<line class="st1" x1="83.6" y1="109.6" x2="58.1" y2="109.6"/>
<line class="st1" x1="168.6" y1="100.5" x2="168.6" y2="109.5"/>
<line class="st1" x1="168.6" y1="109.5" x2="176.3" y2="109.5"/>
<line class="st1" x1="176.3" y1="109.5" x2="176.3" y2="107.7"/>
<line class="st1" x1="176.3" y1="107.7" x2="175.8" y2="105.8"/>
<line class="st1" x1="175.8" y1="105.8" x2="174.9" y2="104.2"/>
<line class="st1" x1="174.9" y1="104.2" x2="173.8" y2="102.8"/>
<line class="st1" x1="173.8" y1="102.8" x2="172.2" y2="101.6"/>
<line class="st1" x1="172.2" y1="101.6" x2="170.5" y2="100.9"/>
<line class="st1" x1="170.5" y1="100.9" x2="168.6" y2="100.5"/>
<line class="st1" x1="339" y1="100.8" x2="337.2" y2="101.1"/>
<line class="st1" x1="337.2" y1="101.1" x2="335.5" y2="101.9"/>
<line class="st1" x1="335.5" y1="101.9" x2="333.9" y2="103"/>
<line class="st1" x1="333.9" y1="103" x2="332.6" y2="104.5"/>
<line class="st1" x1="332.6" y1="104.5" x2="331.9" y2="106.1"/>
<line class="st1" x1="331.9" y1="106.1" x2="331.4" y2="107.9"/>
<line class="st1" x1="331.4" y1="107.9" x2="331.4" y2="109.8"/>
<line class="st1" x1="331.4" y1="109.8" x2="339" y2="109.8"/>
<line class="st1" x1="339" y1="109.8" x2="339" y2="100.8"/>
<line class="st1" x1="369.5" y1="100.8" x2="367.6" y2="101"/>
<line class="st1" x1="367.6" y1="101" x2="365.9" y2="101.8"/>
<line class="st1" x1="365.9" y1="101.8" x2="364.4" y2="102.9"/>
<line class="st1" x1="364.4" y1="102.9" x2="363.2" y2="104.4"/>
<line class="st1" x1="363.2" y1="104.4" x2="362.3" y2="106.1"/>
<line class="st1" x1="362.3" y1="106.1" x2="361.9" y2="107.9"/>
<line class="st1" x1="361.9" y1="107.9" x2="361.9" y2="109.8"/>
<line class="st1" x1="361.9" y1="109.8" x2="369.5" y2="109.8"/>
<line class="st1" x1="369.5" y1="109.8" x2="369.5" y2="100.8"/>
<line class="st1" x1="448.7" y1="100.8" x2="446.9" y2="101.1"/>
<line class="st1" x1="446.9" y1="101.1" x2="445.2" y2="101.9"/>
<line class="st1" x1="445.2" y1="101.9" x2="443.7" y2="103"/>
<line class="st1" x1="443.7" y1="103" x2="442.5" y2="104.5"/>
<line class="st1" x1="442.5" y1="104.5" x2="441.6" y2="106.1"/>
<line class="st1" x1="441.6" y1="106.1" x2="441.1" y2="107.9"/>
<line class="st1" x1="441.1" y1="107.9" x2="441.1" y2="109.8"/>
<line class="st1" x1="441.1" y1="109.8" x2="448.7" y2="109.8"/>
<line class="st1" x1="448.7" y1="109.8" x2="448.7" y2="100.8"/>
<line class="st1" x1="491.6" y1="121.4" x2="491.2" y2="119.5"/>
<line class="st1" x1="491.2" y1="119.5" x2="490.5" y2="117.8"/>
<line class="st1" x1="490.5" y1="117.8" x2="489.4" y2="116.2"/>
<line class="st1" x1="489.4" y1="116.2" x2="488" y2="114.9"/>
<line class="st1" x1="488" y1="114.9" x2="486.3" y2="114.2"/>
<line class="st1" x1="486.3" y1="114.2" x2="484.5" y2="113.7"/>
<line class="st1" x1="484.5" y1="113.7" x2="482.6" y2="113.7"/>
<line class="st1" x1="482.6" y1="113.7" x2="482.6" y2="121.4"/>
<line class="st1" x1="482.6" y1="121.4" x2="491.6" y2="121.4"/>
<line class="st1" x1="479.8" y1="132.7" x2="479.8" y2="123.7"/>
<line class="st1" x1="479.8" y1="123.7" x2="472.2" y2="123.7"/>
<line class="st1" x1="472.2" y1="123.7" x2="472.2" y2="125.6"/>
<line class="st1" x1="472.2" y1="125.6" x2="472.6" y2="127.4"/>
<line class="st1" x1="472.6" y1="127.4" x2="473.5" y2="129.1"/>
<line class="st1" x1="473.5" y1="129.1" x2="474.6" y2="130.6"/>
<line class="st1" x1="474.6" y1="130.6" x2="476.2" y2="131.7"/>
<line class="st1" x1="476.2" y1="131.7" x2="477.9" y2="132.4"/>
<line class="st1" x1="477.9" y1="132.4" x2="479.8" y2="132.7"/>
<line class="st1" x1="370.6" y1="132.7" x2="370.6" y2="123.7"/>
<line class="st1" x1="370.6" y1="123.7" x2="363" y2="123.7"/>
<line class="st1" x1="363" y1="123.7" x2="363" y2="125.6"/>
<line class="st1" x1="363" y1="125.6" x2="363.5" y2="127.4"/>
<line class="st1" x1="363.5" y1="127.4" x2="364.3" y2="129.1"/>
<line class="st1" x1="364.3" y1="129.1" x2="365.5" y2="130.6"/>
<line class="st1" x1="365.5" y1="130.6" x2="367" y2="131.7"/>
<line class="st1" x1="367" y1="131.7" x2="368.8" y2="132.4"/>
<line class="st1" x1="368.8" y1="132.4" x2="370.6" y2="132.7"/>
<line class="st1" x1="339" y1="132.4" x2="339" y2="123.5"/>
<line class="st1" x1="339" y1="123.5" x2="331.4" y2="123.5"/>
<line class="st1" x1="331.4" y1="123.5" x2="331.4" y2="125.4"/>
<line class="st1" x1="331.4" y1="125.4" x2="331.9" y2="127.1"/>
<line class="st1" x1="331.9" y1="127.1" x2="332.8" y2="128.9"/>
<line class="st1" x1="332.8" y1="128.9" x2="334" y2="130.4"/>
<line class="st1" x1="334" y1="130.4" x2="335.5" y2="131.5"/>
<line class="st1" x1="335.5" y1="131.5" x2="337.2" y2="132.2"/>
<line class="st1" x1="337.2" y1="132.2" x2="339" y2="132.4"/>
<line class="st1" x1="227" y1="132.7" x2="228.9" y2="132.4"/>
<line class="st1" x1="228.9" y1="132.4" x2="230.6" y2="131.7"/>
<line class="st1" x1="230.6" y1="131.7" x2="232.1" y2="130.6"/>
<line class="st1" x1="232.1" y1="130.6" x2="233.3" y2="129.1"/>
<line class="st1" x1="233.3" y1="129.1" x2="234.2" y2="127.4"/>
<line class="st1" x1="234.2" y1="127.4" x2="234.7" y2="125.6"/>
<line class="st1" x1="234.7" y1="125.6" x2="234.7" y2="123.7"/>
<line class="st1" x1="234.7" y1="123.7" x2="227" y2="123.7"/>
<line class="st1" x1="227" y1="123.7" x2="227" y2="132.7"/>
<line class="st1" x1="196.8" y1="132.7" x2="198.7" y2="132.4"/>
<line class="st1" x1="198.7" y1="132.4" x2="200.4" y2="131.7"/>
<line class="st1" x1="200.4" y1="131.7" x2="201.9" y2="130.6"/>
<line class="st1" x1="201.9" y1="130.6" x2="203.1" y2="129.1"/>
<line class="st1" x1="203.1" y1="129.1" x2="204" y2="127.4"/>
<line class="st1" x1="204" y1="127.4" x2="204.5" y2="125.6"/>
<line class="st1" x1="204.5" y1="125.6" x2="204.5" y2="123.7"/>
<line class="st1" x1="204.5" y1="123.7" x2="196.8" y2="123.7"/>
<line class="st1" x1="196.8" y1="123.7" x2="196.8" y2="132.7"/>
<line class="st1" x1="140.5" y1="132.7" x2="142.4" y2="132.4"/>
<line class="st1" x1="142.4" y1="132.4" x2="144.1" y2="131.7"/>
<line class="st1" x1="144.1" y1="131.7" x2="145.7" y2="130.6"/>
<line class="st1" x1="145.7" y1="130.6" x2="146.9" y2="129.1"/>
<line class="st1" x1="146.9" y1="129.1" x2="147.7" y2="127.4"/>
<line class="st1" x1="147.7" y1="127.4" x2="148.2" y2="125.6"/>
<line class="st1" x1="148.2" y1="125.6" x2="148.2" y2="123.7"/>
<line class="st1" x1="148.2" y1="123.7" x2="140.5" y2="123.7"/>
<line class="st1" x1="140.5" y1="123.7" x2="140.5" y2="132.7"/>
<line class="st1" x1="86.4" y1="132.7" x2="88.3" y2="132.4"/>
<line class="st1" x1="88.3" y1="132.4" x2="90" y2="131.7"/>
<line class="st1" x1="90" y1="131.7" x2="91.5" y2="130.6"/>
<line class="st1" x1="91.5" y1="130.6" x2="92.7" y2="129.1"/>
<line class="st1" x1="92.7" y1="129.1" x2="93.6" y2="127.4"/>
<line class="st1" x1="93.6" y1="127.4" x2="93.9" y2="125.6"/>
<line class="st1" x1="93.9" y1="125.6" x2="94.1" y2="123.7"/>
<line class="st1" x1="94.1" y1="123.7" x2="86.4" y2="123.7"/>
<line class="st1" x1="86.4" y1="123.7" x2="86.4" y2="132.7"/>
<line class="st1" x1="227.2" y1="100.8" x2="227.2" y2="109.8"/>
<line class="st1" x1="227.2" y1="109.8" x2="234.7" y2="109.8"/>
<line class="st1" x1="234.7" y1="109.8" x2="234.7" y2="107.9"/>
<line class="st1" x1="234.7" y1="107.9" x2="234.3" y2="106.1"/>
<line class="st1" x1="234.3" y1="106.1" x2="233.4" y2="104.5"/>
<line class="st1" x1="233.4" y1="104.5" x2="232.2" y2="103"/>
<line class="st1" x1="232.2" y1="103" x2="230.7" y2="101.9"/>
<line class="st1" x1="230.7" y1="101.9" x2="229" y2="101.1"/>
<line class="st1" x1="229" y1="101.1" x2="227.2" y2="100.8"/>
<line class="st1" x1="86.3" y1="100.8" x2="86.3" y2="109.8"/>
<line class="st1" x1="86.3" y1="109.8" x2="93.9" y2="109.8"/>
<line class="st1" x1="93.9" y1="109.8" x2="93.9" y2="107.9"/>
<line class="st1" x1="93.9" y1="107.9" x2="93.4" y2="106.1"/>
<line class="st1" x1="93.4" y1="106.1" x2="92.6" y2="104.5"/>
<line class="st1" x1="92.6" y1="104.5" x2="91.4" y2="103"/>
<line class="st1" x1="91.4" y1="103" x2="89.9" y2="101.9"/>
<line class="st1" x1="89.9" y1="101.9" x2="88.1" y2="101.1"/>
<line class="st1" x1="88.1" y1="101.1" x2="86.3" y2="100.8"/>
<line class="st1" x1="74.6" y1="121.4" x2="83.6" y2="121.4"/>
<line class="st1" x1="83.6" y1="121.4" x2="83.6" y2="113.7"/>
<line class="st1" x1="83.6" y1="113.7" x2="81.7" y2="113.7"/>
<line class="st1" x1="81.7" y1="113.7" x2="79.9" y2="114.2"/>
<line class="st1" x1="79.9" y1="114.2" x2="78.2" y2="115.1"/>
<line class="st1" x1="78.2" y1="115.1" x2="76.8" y2="116.2"/>
<line class="st1" x1="76.8" y1="116.2" x2="75.6" y2="117.8"/>
<line class="st1" x1="75.6" y1="117.8" x2="74.8" y2="119.5"/>
<line class="st1" x1="74.8" y1="119.5" x2="74.6" y2="121.4"/>
<rect x="238.2" y="107.1" class="st4" width="89.5" height="19.6"/>
<line class="st1" x1="238.2" y1="107.1" x2="238.2" y2="126.7"/>
<line class="st1" x1="238.2" y1="126.7" x2="327.7" y2="126.7"/>
<line class="st1" x1="327.7" y1="126.7" x2="327.7" y2="107.1"/>
<line class="st1" x1="327.7" y1="107.1" x2="238.2" y2="107.1"/>
<rect x="283.1" y="83.5" class="st5" width="22.1" height="23.4"/>
<line class="st1" x1="305.2" y1="83.5" x2="283.1" y2="83.5"/>
<line class="st1" x1="283.1" y1="83.5" x2="283.1" y2="106.9"/>
<line class="st1" x1="283.1" y1="106.9" x2="305.2" y2="106.9"/>
<line class="st1" x1="305.2" y1="106.9" x2="305.2" y2="83.5"/>
<rect x="262" y="83.5" class="st5" width="21.1" height="23.5"/>
<line class="st1" x1="283.1" y1="83.5" x2="262" y2="83.5"/>
<line class="st1" x1="262" y1="83.5" x2="262" y2="107.1"/>
<line class="st1" x1="262" y1="107.1" x2="283.1" y2="107.1"/>
<line class="st1" x1="283.1" y1="107.1" x2="283.1" y2="83.5"/>
<rect x="305.2" y="83.5" class="st5" width="22.4" height="23.4"/>
<line class="st1" x1="327.6" y1="83.5" x2="305.2" y2="83.5"/>
<line class="st1" x1="305.2" y1="83.5" x2="305.2" y2="106.9"/>
<line class="st1" x1="305.2" y1="106.9" x2="327.6" y2="106.9"/>
<line class="st1" x1="327.6" y1="106.9" x2="327.6" y2="83.5"/>
<rect x="239.1" y="83.5" class="st5" width="22.9" height="23.5"/>
<line class="st1" x1="262" y1="83.5" x2="239.1" y2="83.5"/>
<line class="st1" x1="239.1" y1="83.5" x2="239.1" y2="107.1"/>
<line class="st1" x1="239.1" y1="107.1" x2="262" y2="107.1"/>
<line class="st1" x1="262" y1="107.1" x2="262" y2="83.5"/>
<rect x="283.1" y="126.7" class="st5" width="22.4" height="23.4"/>
<line class="st1" x1="305.5" y1="126.7" x2="283.1" y2="126.7"/>
<line class="st1" x1="283.1" y1="126.7" x2="283.1" y2="150.1"/>
<line class="st1" x1="283.1" y1="150.1" x2="305.5" y2="150.1"/>
<line class="st1" x1="305.5" y1="150.1" x2="305.5" y2="126.7"/>
<rect x="261.2" y="126.7" class="st5" width="21.9" height="23.4"/>
<line class="st1" x1="283.1" y1="126.7" x2="261.2" y2="126.7"/>
<line class="st1" x1="261.2" y1="126.7" x2="261.2" y2="150.1"/>
<line class="st1" x1="261.2" y1="150.1" x2="283.1" y2="150.1"/>
<line class="st1" x1="283.1" y1="150.1" x2="283.1" y2="126.7"/>
<rect x="305.4" y="126.7" class="st5" width="22.3" height="23.4"/>
<line class="st1" x1="327.7" y1="126.7" x2="305.4" y2="126.7"/>
<line class="st1" x1="305.4" y1="126.7" x2="305.4" y2="150.1"/>
<line class="st1" x1="305.4" y1="150.1" x2="327.7" y2="150.1"/>
<line class="st1" x1="327.7" y1="150.1" x2="327.7" y2="126.7"/>
<rect x="238.2" y="126.7" class="st5" width="22.9" height="23.4"/>
<line class="st1" x1="261.2" y1="126.7" x2="238.2" y2="126.7"/>
<line class="st1" x1="238.2" y1="126.7" x2="238.2" y2="150.1"/>
<line class="st1" x1="238.2" y1="150.1" x2="261.2" y2="150.1"/>
<line class="st1" x1="261.2" y1="150.1" x2="261.2" y2="126.7"/>
<rect x="370.6" y="95.4" class="st6" width="29" height="14.3"/>
<line class="st1" x1="399.6" y1="95.4" x2="370.6" y2="95.4"/>
<line class="st1" x1="370.6" y1="95.4" x2="370.6" y2="109.6"/>
<line class="st1" x1="370.6" y1="109.6" x2="399.6" y2="109.6"/>
<line class="st1" x1="399.6" y1="109.6" x2="399.6" y2="95.4"/>
<rect x="196.5" y="89.8" class="st7" width="29.3" height="20"/>
<line class="st1" x1="225.8" y1="89.8" x2="196.5" y2="89.8"/>
<line class="st1" x1="196.5" y1="89.8" x2="196.5" y2="109.8"/>
<line class="st1" x1="196.5" y1="109.8" x2="225.8" y2="109.8"/>
<line class="st1" x1="225.8" y1="109.8" x2="225.8" y2="89.8"/>
<rect x="372.6" y="123.5" class="st6" width="39.4" height="17"/>
<line class="st1" x1="412" y1="123.5" x2="372.6" y2="123.5"/>
<line class="st1" x1="372.6" y1="123.5" x2="372.6" y2="140.5"/>
<line class="st1" x1="372.6" y1="140.5" x2="412" y2="140.5"/>
<line class="st1" x1="412" y1="140.5" x2="412" y2="123.5"/>
<rect x="166.4" y="123.8" class="st6" width="15.9" height="29"/>
<line class="st1" x1="182.3" y1="123.8" x2="166.4" y2="123.8"/>
<line class="st1" x1="166.4" y1="123.8" x2="166.4" y2="152.8"/>
<line class="st1" x1="166.4" y1="152.8" x2="182.3" y2="152.8"/>
<line class="st1" x1="182.3" y1="152.8" x2="182.3" y2="123.8"/>
<polygon class="st4" points="412,123.6 412,140.5 399.6,140.5 399.6,196.9 427.2,196.9 427.2,186.9 454.7,186.9 454.7,123.6 "/>
<line class="st1" x1="399.6" y1="140.5" x2="399.6" y2="196.9"/>
<line class="st1" x1="399.6" y1="196.9" x2="427.2" y2="196.9"/>
<line class="st1" x1="427.2" y1="196.9" x2="427.2" y2="186.9"/>
<line class="st1" x1="427.2" y1="186.9" x2="454.7" y2="186.9"/>
<line class="st1" x1="454.7" y1="186.9" x2="454.7" y2="123.6"/>
<line class="st1" x1="454.7" y1="123.6" x2="412" y2="123.6"/>
<line class="st1" x1="412" y1="123.6" x2="412" y2="140.5"/>
<line class="st1" x1="412" y1="140.5" x2="399.6" y2="140.5"/>
<path class="st4" d="M83.6,123.8h154.7v-14.2H83.6V123.8z M327.7,123.6h154.8v-13.9H327.7V123.6z"/>
<line class="st1" x1="83.6" y1="123.8" x2="238.2" y2="123.8"/>
<line class="st1" x1="238.2" y1="123.8" x2="238.2" y2="109.6"/>
<line class="st1" x1="238.2" y1="109.6" x2="83.6" y2="109.6"/>
<line class="st1" x1="83.6" y1="109.6" x2="83.6" y2="123.8"/>
<line class="st1" x1="482.5" y1="109.6" x2="327.7" y2="109.6"/>
<line class="st1" x1="327.7" y1="109.6" x2="327.7" y2="123.6"/>
<line class="st1" x1="327.7" y1="123.6" x2="482.5" y2="123.6"/>
<line class="st1" x1="482.5" y1="123.6" x2="482.5" y2="109.6"/>
<rect x="111.6" y="46.7" class="st4" width="27.5" height="63"/>
<line class="st1" x1="139" y1="46.7" x2="111.6" y2="46.7"/>
<line class="st1" x1="111.6" y1="46.7" x2="111.6" y2="109.6"/>
<line class="st1" x1="111.6" y1="109.6" x2="139" y2="109.6"/>
<line class="st1" x1="139" y1="109.6" x2="139" y2="46.7"/>
</svg>
